<svg fill="none" height="495" viewBox="0 0 945 495" width="945" xmlns="http://www.w3.org/2000/svg" xmlns:xlink="http://www.w3.org/1999/xlink"><clipPath id="clip0_8_22"><path d="M0 0H945V495H0Z"/></clipPath><g clip-path="url(#clip0_8_22)"><path d="M0 0H945V495H0Z" fill="#f8f8f8"/><circle cx="472.93" cy="341.932" fill="#c3dcf4" r="310.74"/><path d="M330.511 283.253H358.8318V459.305H330.511Z" fill="#000000" transform="matrix(.93135227 .36411941 -.36411941 .93135227 125.826746 -100.900796)"/><path d="M411.663 454.624H439.9838V581.755H411.663Z" fill="#000000" transform="matrix(-.17364818 .98480775 -.98480775 -.17364818 930.86477 128.159715)"/><circle cx="347.995" cy="291.343" fill="#bcbcbc" r="48.3091"/><circle cx="281.546" cy="445.604" fill="#f8f8f8" r="30.1015"/><path clip-rule="evenodd" d="M373.895 250.469C380.351 244.697 380.987 234.563 373.779 229.764 351.079 214.65 320.215 216.106 298.935 235.134 277.661 254.155 272.745 284.675 285.186 308.946 289.141 316.663 299.297 317.171 305.761 311.391L373.895 250.469Z" fill="#f8f8f8" fill-rule="evenodd"/><path d="M0 0H28.3208V176.052H0Z" fill="#000000" transform="matrix(-.931352 .364119 .364119 .931352 615.349 283.253)"/><path d="M0 0H28.3208V127.131H0Z" fill="#000000" transform="matrix(.173648 .984808 .984808 -.173648 534.197 454.624)"/><circle cx="48.3091" cy="48.3091" fill="#bcbcbc" r="48.3091" transform="matrix(-1 0 0 1 646.174 243.034)"/><g fill="#f8f8f8"><circle cx="30.1015" cy="30.1015" r="30.1015" transform="matrix(-1 0 0 1 694.415 415.503)"/><path clip-rule="evenodd" d="M571.105 250.469C564.649 244.697 564.013 234.563 571.221 229.764 593.921 214.65 624.785 216.106 646.065 235.134 667.339 254.155 672.255 284.675 659.814 308.946 655.859 316.663 645.704 317.171 639.239 311.391L571.105 250.469Z" fill-rule="evenodd"/><path d="M352.065 310.512C349.39 294.667 357.543 278.969 372.044 272.043L409.573 254.119C448.347 235.6 493.39 235.488 532.254 253.814L569.99 271.607C585.076 278.721 593.298 295.267 589.858 311.587L562.382 441.924H374.244L352.065 310.512Z"/></g><path d="M583.346 495H361.316C352.21 495 344.825 486.908 344.825 476.924V335.393C344.825 325.409 352.21 317.317 361.316 317.317H583.346C592.452 317.317 599.837 325.409 599.837 335.393V476.924C599.837 486.899 592.443 495 583.346 495Z" fill="#3d3d3d"/><path d="M472.327 411.33C479.434 411.33 485.215 405.553 485.215 398.43 485.215 391.307 479.443 385.53 472.327 385.53 465.21 385.53 459.438 391.307 459.438 398.43 459.438 405.553 465.21 411.33 472.327 411.33Z" fill="#f7f7f7"/><path d="M437.132 176.544H501.09V249.065C501.09 258.811 495.269 267.748 485.88 270.36 480.371 271.893 474.246 273.168 469.111 273.168 463.976 273.168 457.851 271.893 452.342 270.36 442.953 267.748 437.132 258.811 437.132 249.065V176.544Z" fill="#bcbcbc"/><path d="M410.062 139.57C412.817 109.105 438.356 85.772 468.945 85.772 499.459 85.772 524.96 108.992 527.811 139.372L533.552 200.549C535.389 220.127 519.987 237.041 500.324 237.041H437.775C418.156 237.041 402.769 220.2 404.536 200.661L410.062 139.57Z" fill="#f8f8f8"/><path d="M423.174 152.724C425.317 129.024 445.185 110.872 468.982 110.872 492.72 110.872 512.559 128.936 514.777 152.57L519.243 200.163C520.672 215.394 508.69 228.552 493.393 228.552H444.733C429.47 228.552 417.5 215.451 418.875 200.25L423.174 152.724Z" fill="#000000"/><path d="M401.246 68.5921H408.43359V154.3777H401.246Z" fill="#f8f8f8"/><circle cx="404.84" cy="66.4477" fill="#4680e1" r="9.1624"/><path d="M389.98 141.899C391.426 132.797 399.976 126.591 409.078 128.037L417.742 129.413 408.582 187.07 399.919 185.694C390.817 184.248 384.611 175.697 386.057 166.596L389.98 141.899Z" fill="#f8f8f8"/><path clip-rule="evenodd" d="M405.8 186.628 399.919 185.694C399.064 185.558 398.234 185.36 397.434 185.104L405.191 154.054C405.688 152.063 408.643 152.552 408.473 154.597L405.8 186.628Z" fill="#e3e3e3" fill-rule="evenodd"/><path d="M0 0H7.18759V85.7856H0Z" fill="#f8f8f8" transform="matrix(-1 0 0 1 536.782 68.5921)"/><circle cx="9.1624" cy="9.1624" fill="#4680e1" r="9.1624" transform="matrix(-1 0 0 1 542.351 57.2853)"/><path d="M548.048 141.899C546.602 132.797 538.052 126.591 528.95 128.037L520.286 129.413 529.446 187.07 538.109 185.694C547.211 184.248 553.417 175.697 551.972 166.596L548.048 141.899Z" fill="#f8f8f8"/><path clip-rule="evenodd" d="M532.228 186.628 538.109 185.694C538.964 185.558 539.794 185.36 540.594 185.104L532.837 154.054C532.34 152.063 529.385 152.552 529.555 154.597L532.228 186.628Z" fill="#e3e3e3" fill-rule="evenodd"/><path d="M439.547 170.939C444.811 165.675 453.347 165.675 458.612 170.939" stroke="#a3f7ca" stroke-linecap="round" stroke-width="8.34347"/><path d="M479.416 170.939C484.681 165.675 493.217 165.675 498.481 170.939" stroke="#a3f7ca" stroke-linecap="round" stroke-width="8.34347"/><path clip-rule="evenodd" d="M98.5017 41.4098C72.219 41.4098 50.9127 62.7161 50.9127 88.9988V146.036C50.9127 172.319 72.219 193.625 98.5016 193.625H105.687V217.766C105.687 224.234 113.648 227.311 117.998 222.526L144.271 193.625H297.55C323.833 193.625 345.139 172.319 345.139 146.036V88.9988C345.139 62.7161 323.833 41.4098 297.55 41.4098H98.5017Z" fill="#4680e1" fill-rule="evenodd"/><rect fill="#306dc6" height="20.9533" rx="10.4766" width="197.25" x="99.4009" y="90.3569"/><rect fill="#306dc6" height="20.9533" rx="10.4766" width="121.384" x="99.4009" y="132.263"/><path clip-rule="evenodd" d="M884.354 291.343C903.944 291.343 919.824 307.223 919.824 326.813V374.11C919.824 393.7 903.944 409.58 884.354 409.58H877.277V428.332C877.277 433.356 871.093 435.747 867.714 432.029L847.305 409.58H726.746C707.157 409.58 691.276 393.7 691.276 374.11V326.813C691.276 307.223 707.157 291.343 726.746 291.343H884.354Z" fill="#ffbd6e" fill-rule="evenodd"/><rect fill="#e59a48" height="16.276" rx="8.13799" transform="matrix(-1 0 0 1 882.16 329.364)" width="153.219"/><rect fill="#e59a48" height="16.276" rx="8.13799" transform="matrix(-1 0 0 1 882.16 361.916)" width="104.365"/><rect fill="#e59a48" height="16.276" rx="8.13799" transform="matrix(-1 0 0 1 760.438 361.916)" width="31.4973"/></g></svg>